<?xml version="1.0" encoding="UTF-8"?>
<svg id="Layer_1" xmlns="http://www.w3.org/2000/svg" version="1.1" viewBox="0 0 1080 1080">
  <!-- Generator: Adobe Illustrator 30.6.0, SVG Export Plug-In . SVG Version: 2.1.4 Build 109)  -->
  <defs>
    <style>
      .st0 {
        fill: #0057ff;
      }

      .st1 {
        fill: #fff;
      }
    </style>
  </defs>
  <circle class="st0" cx="540" cy="540" r="531"/>
  <g>
    <path class="st1" d="M540,0C241.8,0,0,241.8,0,540s241.8,540,540,540,540-241.8,540-540S838.2,0,540,0h0ZM540,1063.5c-289.1,0-523.5-234.4-523.5-523.5S250.9,16.5,540,16.5s523.5,234.4,523.5,523.5-234.4,523.5-523.5,523.5Z"/>
    <path class="st1" d="M299.2,787.1c-.5,0-.9,0-1.3,0-3.9,0-6.3-2.1-5.9-7.4,2.4,2.5,4.8,4.9,7.3,7.3Z"/>
    <polygon class="st1" points="709.4 144.9 692.1 164.3 707.3 170.9 709.4 144.9"/>
    <path class="st1" d="M597.2,124c1.7-1.3,2.6-3.3,3-5.9.3-2.5-.2-4.6-1.5-6.3-1.3-1.6-3.5-2.6-6.5-3l-10.1-1.2-1.9,16.6,10.1,1.2c3,.3,5.3-.1,7-1.4h0Z"/>
    <path class="st1" d="M129.1,506.3c-2.7,0-4.5,1.1-5.4,3.2-.9,2.1-1.3,5.2-1.3,9.2s.2,4.9.5,6.6c.3,1.8,1,3.2,1.9,4.3,1,1.1,2.4,1.6,4.3,1.6s3.3-.5,4.3-1.6c1-1.1,1.6-2.5,1.9-4.3.3-1.7.5-4,.5-6.6,0-4-.4-7-1.3-9.2-.9-2.1-2.7-3.2-5.4-3.2h0Z"/>
    <path class="st1" d="M817.1,867.4c-1.8,0-3.5.7-5.4,2.2l-7.8,6.4,8,9.8,8-6.5c1.8-1.5,2.9-3,3.2-4.7.3-1.6-.2-3.2-1.4-4.8-1.3-1.6-2.8-2.4-4.6-2.4Z"/>
    <path class="st1" d="M540,44.1c-273.9,0-496,222.1-496,496s222.1,496,496,496,496-222.1,496-496S813.9,44.1,540,44.1ZM769.8,155.1l13.8,8.9-29.8,45.8,18,11.7-6.9,10.6-31.8-20.7,36.7-56.5ZM725.3,132l-4.2,71.5-16-6.9,1-12.5-23.1-9.9-8.4,9.3-15.8-6.8,49-52.3,17.5,7.5h0ZM645.5,104.6l15.9,4.1-17,65.2-15.9-4.1,17-65.2ZM567.3,92.2l27.3,3.2c5.3.6,9.7,2.1,13.2,4.3,3.5,2.3,6,5.1,7.4,8.6,1.5,3.4,2,7.1,1.5,11-.5,4.4-2.2,8.3-5.2,11.5-2.9,3.2-6.9,5.3-12,6.1l12.3,28.3-18.4-2.1-11-26.9-3.9-.5-3,25.3-16.3-1.9,7.8-66.9h0ZM538.5,91.6l.7,13.1-24.8,1.2.7,13.6,21.9-1.1.6,12.6-21.9,1.1.7,14.8,24.8-1.2.7,13.1-41.2,2.1-3.4-67.3,41.2-2.1h0ZM446.6,101.9c5.3-1.1,9.9-1.2,13.9-.2,4,1,7.3,2.9,9.8,5.7,2.5,2.8,4.2,6.2,5.1,10.4.8,3.8.7,7.5-.3,11-1.1,3.5-3.2,6.7-6.4,9.4-3.2,2.7-7.5,4.7-12.9,5.8l-9.9,2.2,5.2,23.6-16,3.5-14.4-65.8,26-5.7h0ZM337.7,139.9l36.5,34.6-2.3-50.2,17.6-8,27.9,61.3-14.9,6.8-16.7-36.8,3,43-12.1,5.5-30.6-30.6,16.8,36.9-14.9,6.8-27.9-61.3,17.6-8h0ZM294.9,165l37.9,55.7-13.6,9.2-37.9-55.7,13.6-9.2ZM108.1,540.3h-29.6v-7.5c1.2-1,1.8-1.5,1.8-1.5h0c3.9-3.2,6.9-5.8,9.1-7.8,2.2-2,4.1-4.2,5.7-6.5,1.5-2.2,2.3-4.4,2.3-6.5s-.4-2.9-1.1-3.8c-.7-.9-1.9-1.4-3.4-1.4s-2.7.6-3.5,1.7-1.3,2.7-1.3,4.8h-9.7c0-3.3.8-6.1,2.2-8.4,1.4-2.2,3.2-3.9,5.4-5,2.2-1.1,4.7-1.6,7.4-1.6,4.7,0,8.2,1.2,10.6,3.6s3.6,5.5,3.6,9.4-1.4,8.1-4.3,11.7c-2.9,3.6-6.5,7.1-11,10.5h15.9v8.2h0ZM141.8,534.9c-2.6,3.9-6.8,5.8-12.7,5.8s-10.1-2-12.7-5.8c-2.6-3.9-3.9-9.3-3.9-16.1s1.3-12.1,3.9-16c2.6-3.9,6.9-5.8,12.7-5.8s10.1,2,12.7,5.8c2.6,3.9,3.9,9.2,3.9,16s-1.3,12.2-3.9,16.1ZM280,909.7l-11.5-9.3,3.7-10.1-16.7-13.4-9,5.7-11.4-9.2,52.2-31.7,12.6,10.1-19.8,57.8h0ZM300.1,922.1l24-39.5-13-7.9,5.8-9.6,37.9,23.1-5.8,9.6-13-7.9-24,39.5-12-7.3h0ZM368.6,957.5l9.5-21.6-19.9-8.8-9.5,21.6-12.8-5.6,23.1-52.6,12.8,5.6-9.1,20.6,19.9,8.7,9-20.6,12.8,5.6-23.1,52.6-12.8-5.6h0ZM426.6,977l-30.9-9.3,16.6-55,13.4,4-13.5,44.6,17.5,5.3-3.1,10.3h0ZM480.4,940.9l-20.8-4-2.2,11.4,18.4,3.6-2,10.6-18.4-3.6-2.4,12.4,20.8,4-2.1,11-34.5-6.7,10.9-56.4,34.5,6.7-2.1,11h0ZM529.9,945.3l-15.2-1.2-3.6,46.1-13.9-1.1,3.6-46.1-15.2-1.2.9-11.2,44.3,3.5-.9,11.2ZM537.3,991.1l-.9-57.4,14-.2.9,57.4-14,.2ZM608.5,981.2c-4.4,4.1-10,6.5-16.8,7.3-5.5.6-10.6,0-15.2-2-4.6-2-8.4-5-11.4-9.1-2.9-4.1-4.7-9-5.4-14.6-.6-5.6,0-10.8,2-15.5,1.9-4.7,4.9-8.5,9-11.5s8.9-4.8,14.4-5.4c6.8-.8,12.8.4,18,3.4,5.2,3,9,7.5,11.3,13.5l-15.3,1.7c-1.4-2.3-3.2-3.9-5.5-4.9s-4.7-1.4-7.3-1.1c-4.3.5-7.6,2.4-9.9,5.7-2.3,3.3-3.2,7.4-2.6,12.4.6,5,2.3,8.8,5.3,11.5,3,2.7,6.6,3.8,10.9,3.3,2.7-.3,4.9-1.2,6.9-2.7,1.9-1.5,3.3-3.5,4.2-6l15.3-1.7c-.9,6.4-3.6,11.6-8,15.7h0ZM692.3,959.8c-3.5,4.9-8.6,8.3-15,10.4-5.3,1.7-10.4,2-15.4,1-4.9-1-9.2-3.3-12.9-6.8s-6.4-7.9-8.1-13.3c-1.7-5.4-2.1-10.6-1.1-15.6s3.2-9.3,6.6-13c3.4-3.7,7.8-6.4,13.1-8.1,6.5-2.1,12.6-2.1,18.3-.2,5.7,2,10.3,5.7,13.7,11.1l-14.6,4.7c-1.8-1.9-3.9-3.2-6.3-3.7-2.4-.6-4.8-.4-7.4.4-4.1,1.3-7,3.8-8.6,7.5-1.6,3.7-1.7,7.9-.2,12.7,1.5,4.8,4,8.2,7.5,10.2,3.4,2,7.2,2.4,11.3,1.1,2.5-.8,4.6-2.1,6.2-4,1.6-1.8,2.6-4.1,3-6.7l14.7-4.7c.3,6.4-1.3,12.1-4.8,16.9h0ZM715.5,955.9l-24-52.1,12.7-5.9,19.5,42.3,16.6-7.7,4.5,9.8-29.3,13.5h0ZM784.5,916.8c-2.2,3.5-5.2,6.4-9.1,8.7-3.9,2.4-7.8,3.7-11.8,4.1-4,.4-7.8-.4-11.4-2.4-3.6-2-6.8-5.1-9.5-9.5l-17.9-29.2,11.9-7.3,17.9,29.3c1.8,2.9,3.9,4.7,6.3,5.4,2.4.7,5,.2,7.8-1.5s4.5-3.8,5-6.3c.5-2.5-.1-5.2-1.9-8.1l-17.9-29.3,11.9-7.3,17.9,29.2c2.7,4.4,4,8.6,4,12.8,0,4.2-1.1,8-3.3,11.4ZM837.1,874.3c-.8,4.3-3.6,8.3-8.2,12.1l-20.7,16.9-36.3-44.5,20-16.3c4.5-3.7,8.9-5.5,13.1-5.6,4.2,0,7.8,1.8,10.7,5.3,2.1,2.6,3.2,5.4,3.3,8.2,0,2.8-.8,5.5-2.5,8.1,3-1.6,6.1-2,9.3-1.2,3.2.7,5.8,2.4,8,4.9,3,3.7,4.1,7.7,3.3,12ZM889.3,693.5l-.6,1.1c-1.4,2.6-2.7,5.3-4.1,8.2-4.5,9.3-9.2,18.8-17.3,26.8-10.1,9.9-22.5,17.6-34.8,21.7l-.7.2h-5.8c0,.1-14,.5-14,.5-63.1,81-161.6,133-272.2,133s-174.8-35.7-236.5-93.9c-2.1.5-3.9.8-5.6.8-4.3,0-6.8-1.7-8.1-3.2-.5-.5-.9-1.2-1.3-1.8-1.1.6-2.2,1.1-3.3,1.5-9.9,4.2-19.6,5.1-29,5.9-.8,0-1.5,0-2.2,0-8.1,0-10.3-5.6-10.9-8.9v-.8c-8.1,1.4-16.3,2.8-22.6,2.8s-9.4-.4-12.6-4.1c-1.2-1.4-2.6-3.9-2.1-7.6l.3-2.4.9-.5-11.5-1.5c-8.2-1.1-13.4-7.4-13-15.8.2-4.9,2.5-7.9,5.2-9.9-6.2-2.6-13.4-7.4-12.9-16.6.3-5.2,3.5-8.4,7.4-10.5-.1,0-.3-.2-.4-.3-4.7-4-4.4-13.2-1.9-17.4,1.9-3.2,5.9-7.4,10.8-8.6l3.6-.9-.2-.3c-4.8-8-2.2-16.6,6.6-21.9,2-1.2,4-2.4,6.1-3.4,2-1,4.2-1.7,6.6-2.2-.9-3-.6-6.1.8-9.1-12.6-35.8-19.5-74.4-19.5-114.6,0-190.5,154.5-345,345-345s345,154.5,345,345-19.5,130.8-53.2,184.1c7.3-3.2,14.1-10.1,19.8-16,1.6-1.6,3-3.1,4.4-4.4.7-.6,1.3-1.2,1.9-1.7l17.1-15c2.1-1.8,4.6-2.8,7.1-2.8s3.6.5,5,1.5l2.1,1.4v6.5h0ZM968,539.2h-29.6v-7.5c1.1-.9,1.7-1.4,1.8-1.5,3.9-3.2,6.9-5.8,9.1-7.9,2.2-2,4.1-4.2,5.7-6.4s2.3-4.4,2.3-6.5-.4-2.9-1.1-3.8c-.7-.9-1.9-1.3-3.4-1.3s-2.7.6-3.5,1.7c-.8,1.1-1.3,2.7-1.3,4.8h-9.7c0-3.3.8-6.1,2.2-8.4,1.4-2.2,3.2-3.9,5.4-5,2.2-1.1,4.7-1.6,7.4-1.6,4.7,0,8.2,1.2,10.6,3.6s3.6,5.5,3.6,9.4-1.4,8.1-4.3,11.7c-2.9,3.6-6.5,7.1-11,10.5h15.9v8.2ZM995.7,538.5c-2.1,1.1-4.7,1.6-7.7,1.6-4.7,0-8.5-1.2-11.3-3.5s-4.3-5.8-4.5-10.5h9.8c0,1.7.5,3.1,1.5,4.1.9,1,2.3,1.5,4.1,1.5s2.7-.4,3.6-1.3,1.3-2.1,1.3-3.5-.6-3.2-1.8-4.1c-1.2-.8-3.1-1.3-5.8-1.3h-1.9v-8.2h1.9c2,0,3.6-.4,4.9-1,1.2-.7,1.9-1.9,1.9-3.7s-.4-2.5-1.2-3.3-1.9-1.2-3.2-1.2-2.6.4-3.3,1.4c-.7.9-1.1,2-1.3,3.4h-9.9c.2-4.2,1.5-7.5,4.1-9.7,2.6-2.3,6.1-3.4,10.6-3.4s5.5.5,7.6,1.5c2.1,1,3.7,2.4,4.8,4.2,1.1,1.8,1.6,3.8,1.6,6s-.6,4.7-2,6.4c-1.3,1.6-2.8,2.7-4.5,3.3v.2c2.3.8,4,2,5.3,3.7,1.3,1.7,2,4,2,6.7s-.6,4.6-1.7,6.5c-1.1,1.9-2.8,3.3-4.9,4.4h0Z"/>
    <path class="st1" d="M882.2,688.9c-1.3,0-2.7.5-3.9,1.6l-17.1,15c-3.6,3.2-8.1,8.2-13.2,13-5.9,5.4-12.7,10.4-20.1,11.8-1.3.3-2.6.4-4,.4s-2.2,0-3.3-.3c3.6-3,6.7-10,4-13.4-.8-.1-1.7-.2-2.5-.2-11.9,0-23.1,10.3-36.7,12-9.4-6.8-19.5-11.2-30.7-17.9,11.5-4.2,24.3-4.5,25.3-16.3-.5,0-1,0-1.6,0-11.9,0-25.5-7.1-33.9-14.6-4.3-3.9-6.9-8.6-12.8-10.7-6.6-2.4-16.1-3.9-20.8-9.8-8.8-10.9-16.2-21.4-26.4-31.6l45.7-19.8c1.4-.6,3.3-.8,5.7-.8,11.5,0,33.2,5.8,50.5,7,7.6.5,13.6,3.9,19,8.6-1.8-11.2-9-18.5-16.4-25.7l-29-18.8c-17.3-18.7-37.3-31.3-62.2-37.7-13.9-3.6-26.6-10.6-41.3-12.8l-20-7.1s-.3.4-.4,1.2c1.1,1,4.5.7,4.5,4.2-7.7-1.5-16.1-3.4-22.2-7.4-9.3-20.9-17.4-42.3-4.8-62.2,5.4-8.6,11.4-17.3,10.5-28-1.2-15.1,0-29.6,4.9-44.3l9.7-28.6,11.7-24.9c7.2-15.4,16.1-22.4,15.9-24.3,0-1.1-.5-1.6-1.3-1.6-4,0-16.7,14.4-24.8,21.6-8.4,7.5-16.1,14.7-22.5,24.4-5.7,6.2-6.9,15.6-16,19.9l22-59.3c5.7-15.4,14-28.6,21.8-42.7,6.7-12.3,14.8-22.9,23.3-33.2-11.3,2.8-18.7,9.6-28,13.8-10.8,5-21.1,9.9-29.1,19-8,9.1-14.8,18.7-20.3,29.5-4.3,8.4-5.6,17.5-12.2,24.8,3.1-20.2,7.7-38.2,14.4-56.3,6.6-17.7,17-33,27.7-48.3,1.3-1.8,2.6-2.8,2.2-4.9h-.5l-33.7,20.8c-10.7,6.4-17.5,14.2-23.7,24.8-6.3,10.8-12.2,20.9-14.5,33.7l-8.6,49.8c-.4,2.5-1.1,4.6-3.2,5.6l-1.7-38.6c-1.1-24.5-4.2-52.3,7.2-73.8-8.5,2.4-11.2,9.8-16.3,15.5-6.2,6.9-11.2,13.7-13.5,23-3.8,15.1-4.8,30.3-4.5,46l.4,28.3c-9.3-15.2-13.6-31.3-17.9-48.4-1.3-5.3-3.6-10.8-9.8-11.1-4.8,13.1-4.1,26.2-4.9,40.8-2.7-.8-3.1-3.4-3.2-6.1-1.7-1.4-3.8-2-5.9-2-4.1,0-8.2,2.4-9.6,6.6-3.3,10.6-.5,20.7,3.1,32-.8.2-1.5.3-2.1.3-7.4,0-8-11.8-18-13.2-.4,0-.9,0-1.4,0-3.9,0-10,1.7-10.6,5.6-.4,9.2,3.4,17.8,4.8,27.2l-11.9-4.4c-.6-.2-1.2-.3-1.9-.3-3.4,0-7.7,2.6-10.2,4.9l7,23.4c-3.8-2.3-8.3-3.3-12.7-3.3-8.9,0-17.2,4.3-16.8,10.8,1.5,4.9,8.8,8.8,12.7,13h-.3c-10.1,0-19.6,2.6-23.9,11.8,3.2,6.5,8,10.5,13.1,16.9-8.5,1.2-15.7,3.7-24,7.7l4.1,9.2c1.6,3.5,2.4,6.6,5.9,9.6-7.7,11.9-23,14-20.7,21.4,1.6,5.2,5.3,9.7,8.4,15.2-2.5,2.2-7.6,3.5-9.2,7.4-3.5,8,.8,18.3,9.9,21-2.5,6.7-9.6,5.5-8.2,16,.7,4.9,6.5,5.2,9.1,7.2,1.5,5-5,9.1-6.8,12-2.1,3.3,0,6.5,1.4,8,2.1,2.4,4.8,3,9.4,3.9l-7.2,6.8c-2,1.9.8,4.7,2,5.9,1.1,1.2,3.3,1.6,6.1,1.6,5.1,0,12.6-1.3,20.2-1.3s5.7.2,8.5.7l-29,13h-3.2c-.6,0-.6,2-.2,2.5s2.5-.3,4.5,2.3c-3.5,1.6-7.6,2.8-11.9,2.8s-4.1-.3-6.2-.9c-20.7-6.6-41.8-8.9-63.4-11.3-2.7-.3-5.3-.5-7.9-.5-6.9,0-13.3,1.3-19.9,5.3-3.8,2.3-8,3.9-11.4,7.5-2.2,2.3-5.5,10.5-1.2,11.3l36.1,6.4c-5.3,1-10.8,1.3-16.2,1.3-7.8,0-15.4-.6-22.2-.6s-6.9.2-9.9.7c-8.9,1.6-22.5,10-18.6,18.4.8,1.7,3.2,2,5.1,5-1.5-.2-2.9-.3-4.2-.3h0c-4.3,0-7.5.9-10.6,2.5-1.7.8-3.4,1.9-5.3,3-5.5,3.4-9,8.9-5,15.4l15.6,2.8-21.9,5.5c-3.5.9-6.5,4.2-7.8,6.4-1.6,2.6-1.8,9.1.8,11.3,2.8,2.4,7,2.3,8.9,5-6.4,1.6-13.9,3.5-14.3,9.8-.7,11.4,16.8,13.4,18.8,15.2,3.6,3.1-10.6,1.1-11.1,11.3-.3,5.5,2.8,10,8.8,10.8l25.6,3.4-11.2,6.4c-.6,4.7,3.5,6.2,9.9,6.2,9.4,0,23.6-3.3,34.7-4.8-1.5,4.1-4.9,4.9-7.4,6.8.7,4,3,4.9,6.1,4.9s1.2,0,1.8,0c9.1-.8,17.5-1.6,25.8-4.9,3.4-1.3,6.7-3,10.1-5.2,0,0,.2-.1.3-.2,0,.2,0,.3,0,.4,2.4,2.5,4.8,4.9,7.3,7.3,7.5-.8,19.6-7.6,29.7-13.9-.7,5.3,1,7.3,4.3,7.3,6.8,0,20.2-9.1,31.9-16,6.6-4,13.4-9.4,21.7-11.1.8.5.5,2.7,1,3.5,1,1.5,2.5,2,4.3,2,4.9,0,11.8-4,16.2-5.3,9.8-2.9,18.2-5.3,26.4-12.1,2.5,3.6,7.5,2.2,10.2,4.1,2.1,1.5,1.8,9.4,5.7,9.4s.5,0,.7,0l19.6-4.4c-2.4,4.1-6,6-7.1,9.4-.9,2.8.1,9.7,4.2,10.2.7,0,1.4.1,2.1.1,6.4,0,12.7-3.9,19.2-6.2-2.3,7.6-9.1,16.3-3.1,17.5,4.1.9,8.4,1.4,12.7,1.4,7.5,0,15-1.5,21.8-4.8,5.1-2.5,8.1-7.5,13.8-9-2.1,9.7-7.5,17.8-6.8,27.5,2,3.4,8.4,5.1,13.6,5.1s3.6-.2,5-.7c7.7-2.5,10.1-9.4,15-14.2,5.7-5.5,10.3-10.9,15.8-17.4-2.3,14.2-9.2,26.2-6.9,40.9,3.1,1.8,5.9,2.6,8.5,2.6,12.4,0,20.4-17.8,29.9-33.1.9,10.2-2,21,2.3,29.6,2.1,1.2,4.5,1.7,6.9,1.7,7.2,0,14.9-4.4,18.6-10.4,3.9-6.3,5.3-11.8,8.2-19.8l8,20.5c.3,0,.6,0,.8,0,6.1,0,12.6-1.1,17.8-4.1,8.2-4.8,11.2-12,10.6-22.3,6.5,4.9,9.7,13.9,17.4,15.7,1.2.3,2.3.4,3.5.4,8.2,0,17.1-6,22.7-11.2,3.7-3.4,4.6-11.6.1-13.3-.4-.1-.7-.2-1.1-.2-3.1,0-3.7,6.2-4.4,10.5-3.7-6.9-5.4-14.7-6.4-24l20.5,14.4c3.3,2.4,8,3.5,13.1,3.5,12.8,0,28.4-6.9,33.5-18.4l24.3-5,10.5-.3,13.8-.4h1.4c12.2-4.1,23.8-11.7,32.9-20.6,9.9-9.7,14.4-22.4,20.5-33.8v-2.7c-.7-.4-1.5-.7-2.3-.7h0ZM736.8,580.3c2.9,0,5.2,2.3,5.2,5.2s-2.3,5.2-5.2,5.2-5.2-2.3-5.2-5.2,2.3-5.2,5.2-5.2Z"/>
    <path class="st1" d="M451.8,131.6c3.1-.7,5.2-1.9,6.4-3.6,1.2-1.8,1.5-4,.9-6.6-.6-2.6-1.8-4.5-3.6-5.6-1.8-1.1-4.3-1.3-7.3-.7l-8.7,1.9,3.6,16.5,8.7-1.9Z"/>
    <polygon class="st1" points="276.1 879.7 283.7 858.9 265.1 870.8 276.1 879.7"/>
    <path class="st1" d="M807.6,857.7c.3-1.6-.1-3.1-1.4-4.6-1.2-1.5-2.7-2.3-4.3-2.3-1.6,0-3.3.7-5.1,2.1l-7.1,5.8,7.6,9.3,7.1-5.8c1.8-1.4,2.8-2.9,3.1-4.5h0Z"/>
  </g>
</svg>